<svg width="27" height="28" viewBox="0 0 27 28" fill="none" xmlns="http://www.w3.org/2000/svg">
<path d="M13.2113 8.36475C9.932 8.36475 7.21484 11.035 7.21484 14.3612C7.21484 17.6874 9.88515 20.3577 13.2113 20.3577C16.5375 20.3577 19.2078 17.6405 19.2078 14.3612C19.2078 11.0819 16.4906 8.36475 13.2113 8.36475ZM13.2113 18.2027C11.1032 18.2027 9.36983 16.4694 9.36983 14.3612C9.36983 12.2531 11.1032 10.5197 13.2113 10.5197C15.3195 10.5197 17.0528 12.2531 17.0528 14.3612C17.0528 16.4694 15.3195 18.2027 13.2113 18.2027Z" fill="white"/>
<path d="M19.4416 9.58287C20.1919 9.58287 20.8002 8.97462 20.8002 8.2243C20.8002 7.47398 20.1919 6.86572 19.4416 6.86572C18.6913 6.86572 18.083 7.47398 18.083 8.2243C18.083 8.97462 18.6913 9.58287 19.4416 9.58287Z" fill="white"/>
<path d="M22.9552 4.71078C21.7372 3.4459 20.0038 2.79004 18.0362 2.79004H8.38565C4.30993 2.79004 1.59277 5.50719 1.59277 9.58292V19.1866C1.59277 21.2011 2.24864 22.9344 3.56037 24.1993C4.82525 25.4174 6.51175 26.0264 8.4325 26.0264H17.9894C20.0038 26.0264 21.6903 25.3705 22.9084 24.1993C24.1732 22.9813 24.8291 21.2479 24.8291 19.2335V9.58292C24.8291 7.61532 24.1732 5.92882 22.9552 4.71078ZM22.7678 19.2335C22.7678 20.6858 22.2525 21.8569 21.4092 22.6534C20.566 23.4498 19.3948 23.8714 17.9894 23.8714H8.4325C7.02708 23.8714 5.85589 23.4498 5.01264 22.6534C4.16938 21.8101 3.74776 20.6389 3.74776 19.1866V9.58292C3.74776 8.17749 4.16938 7.00631 5.01264 6.16305C5.80904 5.36665 7.02708 4.94502 8.4325 4.94502H18.0831C19.4885 4.94502 20.6597 5.36665 21.5029 6.2099C22.2993 7.05316 22.7678 8.22434 22.7678 9.58292V19.2335Z" fill="white"/>
</svg>
