<svg width="39" height="36" viewBox="0 0 39 36" fill="none" xmlns="http://www.w3.org/2000/svg">
<path fill-rule="evenodd" clip-rule="evenodd" d="M36.9693 9.13102C37.234 8.35075 36.9693 7.78353 35.7981 7.78353H31.9038C30.9215 7.78353 30.4679 8.28019 30.2032 8.81144C30.2032 8.81144 28.1999 13.3492 25.4024 16.2911C24.4952 17.142 24.0795 17.4256 23.588 17.4256C23.3233 17.4256 22.9827 17.142 22.9827 16.3624V9.09436C22.9827 8.17297 22.6808 7.74756 21.8487 7.74756H15.7243C15.119 7.74756 14.7412 8.17297 14.7412 8.59839C14.7412 9.4845 16.14 9.69755 16.2909 12.1788V17.5702C16.2909 18.7399 16.0679 18.9536 15.5726 18.9536C14.2497 18.9536 11.0366 14.3806 9.10913 9.16976C8.73435 8.1377 8.35363 7.74756 7.37057 7.74756H3.4391C2.30509 7.74756 2.11621 8.24353 2.11621 8.77547C2.11621 9.73283 3.4391 14.5535 8.27778 20.934C11.4909 25.292 16.0649 27.6342 20.1852 27.6342C22.6808 27.6342 22.9827 27.1022 22.9827 26.2161V22.9193C22.9827 21.8561 23.2095 21.679 24.0037 21.679C24.5703 21.679 25.5913 21.962 27.8972 24.0538C30.543 26.535 30.9966 27.6694 32.4712 27.6694H36.3647C37.4987 27.6694 38.0282 27.1375 37.7255 26.1096C37.3857 25.0817 36.1 23.5931 34.4365 21.8208C33.5293 20.8289 32.1685 19.7297 31.7528 19.1978C31.1862 18.4888 31.3372 18.2052 31.7528 17.5674C31.7149 17.5674 36.4785 11.2574 36.9693 9.12826" fill="white"/>
</svg>
